<svg width="97" height="97" viewBox="0 0 97 97" fill="none" xmlns="http://www.w3.org/2000/svg">
<g clip-path="url(#clip0_16_208)">
<path fill-rule="evenodd" clip-rule="evenodd" d="M61.8137 28.9183C57.8728 26.2852 53.2396 24.8797 48.4999 24.8797V0.915581C57.9792 0.915581 67.2456 3.72652 75.1274 8.99294C83.0092 14.2593 89.1521 21.7447 92.7798 30.5024C96.4073 39.26 97.3565 48.897 95.5072 58.1941C93.6579 67.4912 89.0932 76.0312 82.3902 82.734C75.6874 89.437 67.1474 94.0017 57.8503 95.851C48.5532 97.7003 38.9162 96.7511 30.1586 93.1236C21.4009 89.4959 13.9155 83.353 8.64914 75.4712C3.38272 67.5894 0.571777 58.323 0.571777 48.8438H24.5359C24.5359 53.5834 25.9414 58.2166 28.5745 62.1575C31.2077 66.0984 34.9504 69.1699 39.3294 70.9837C43.7081 72.7975 48.5265 73.272 53.1751 72.3473C57.8237 71.4227 62.0936 69.1404 65.4452 65.789C68.7966 62.4374 71.0789 58.1675 72.0034 53.5189C72.9282 48.8703 72.4537 44.0519 70.6399 39.6732C68.826 35.2942 65.7546 31.5515 61.8137 28.9183Z" fill="#FF0000"/>
<path fill-rule="evenodd" clip-rule="evenodd" d="M24.5358 0.915591C24.5358 4.0626 23.916 7.17879 22.7117 10.0862C21.5074 12.9937 19.7422 15.6355 17.5169 17.8608C15.2917 20.086 12.6499 21.8512 9.74244 23.0555C6.83497 24.2598 3.71878 24.8797 0.571778 24.8797L0.571777 48.8438C6.86579 48.8438 13.0982 47.6041 18.9131 45.1955C24.728 42.7868 30.0116 39.2564 34.462 34.8058C38.9126 30.3555 42.443 25.0719 44.8516 19.2569C47.2603 13.442 48.4999 7.20959 48.4999 0.915581L24.5358 0.915591Z" fill="#00FF00"/>
</g>
<defs>
<clipPath id="clip0_16_208">
<rect width="95.8563" height="95.8563" fill="white" transform="translate(0.571777 0.915581)"/>
</clipPath>
</defs>
</svg>
